<svg width="33" height="34" viewBox="0 0 33 34" fill="none" xmlns="http://www.w3.org/2000/svg">
<path d="M16.3322 30.9487C24.0637 30.9487 30.3314 24.6811 30.3314 16.9496C30.3314 9.21807 24.0637 2.95044 16.3322 2.95044C8.6007 2.95044 2.33307 9.21807 2.33307 16.9496C2.33307 24.6811 8.6007 30.9487 16.3322 30.9487Z" stroke="#141718" stroke-width="3.06231" stroke-linecap="round" stroke-linejoin="round"/>
<path d="M12.3716 12.8665C12.6916 11.9568 13.3232 11.1898 14.1545 10.7012C14.9858 10.2127 15.9633 10.0341 16.9136 10.1971C17.864 10.3601 18.726 10.8542 19.347 11.5919C19.968 12.3296 20.3079 13.2632 20.3064 14.2275C20.3064 16.9495 16.2234 18.3106 16.2234 18.3106" stroke="#141718" stroke-width="3.06231" stroke-linecap="round" stroke-linejoin="round"/>
<path d="M16.3325 23.7548H16.3454" stroke="#141718" stroke-width="3.06231" stroke-linecap="round" stroke-linejoin="round"/>
</svg>
