<svg width="25" height="26" viewBox="0 0 25 26" fill="none" xmlns="http://www.w3.org/2000/svg">
<path fill-rule="evenodd" clip-rule="evenodd" d="M12.5403 2.15767C6.7432 2.15767 2.02713 6.87374 2.02713 12.6708C2.02713 18.4679 6.7432 23.1839 12.5403 23.1839C18.3373 23.1839 23.0534 18.4679 23.0534 12.6708C23.0534 6.87374 18.3373 2.15767 12.5403 2.15767M12.5403 25.0392C5.72034 25.0392 0.171875 19.4907 0.171875 12.6708C0.171875 5.85083 5.72034 0.302368 12.5403 0.302368C19.3602 0.302368 24.9087 5.85083 24.9087 12.6708C24.9087 19.4907 19.3602 25.0392 12.5403 25.0392" fill="#141718"/>
<path fill-rule="evenodd" clip-rule="evenodd" d="M16.7839 17.2378C16.6218 17.2378 16.4586 17.1958 16.3089 17.108L11.646 14.3263C11.3665 14.1581 11.1934 13.8551 11.1934 13.5286L11.1934 7.53237C11.1934 7.02031 11.6089 6.60474 12.121 6.60474C12.6343 6.60474 13.0486 7.02031 13.0486 7.53237L13.0486 13.0017L17.2601 15.5125C17.6991 15.7759 17.8438 16.3448 17.5816 16.7852C17.4072 17.0758 17.0993 17.2378 16.7839 17.2378" fill="#141718"/>
</svg>
