<svg width="33" height="33" viewBox="0 0 33 33" fill="none" xmlns="http://www.w3.org/2000/svg">
<path d="M13.7268 4.38179C14.3894 1.6504 18.275 1.6504 18.9376 4.38179C19.037 4.79212 19.2319 5.17318 19.5065 5.49395C19.781 5.81472 20.1274 6.06613 20.5174 6.22773C20.9075 6.38933 21.3302 6.45655 21.7511 6.42391C22.1721 6.39127 22.5793 6.25971 22.9398 6.03992C25.3399 4.57778 28.0884 7.32473 26.6263 9.72636C26.4068 10.0867 26.2754 10.4937 26.2429 10.9144C26.2103 11.335 26.2775 11.7574 26.4389 12.1472C26.6003 12.5371 26.8514 12.8833 27.1718 13.1578C27.4922 13.4323 27.8729 13.6273 28.2828 13.727C31.0142 14.3896 31.0142 18.2752 28.2828 18.9378C27.8725 19.0372 27.4914 19.2321 27.1707 19.5066C26.8499 19.7812 26.5985 20.1276 26.4369 20.5176C26.2753 20.9077 26.2081 21.3304 26.2407 21.7513C26.2733 22.1722 26.4049 22.5795 26.6247 22.94C28.0868 25.3401 25.3399 28.0886 22.9383 26.6264C22.5779 26.407 22.1709 26.2756 21.7502 26.243C21.3296 26.2105 20.9072 26.2776 20.5174 26.4391C20.1276 26.6005 19.7813 26.8516 19.5068 27.172C19.2323 27.4924 19.0373 27.873 18.9376 28.283C18.275 31.0144 14.3894 31.0144 13.7268 28.283C13.6274 27.8727 13.4325 27.4916 13.158 27.1709C12.8835 26.8501 12.5371 26.5987 12.147 26.4371C11.757 26.2755 11.3343 26.2083 10.9133 26.2409C10.4924 26.2735 10.0851 26.4051 9.72462 26.6249C7.32454 28.087 4.57604 25.3401 6.03818 22.9384C6.25765 22.5781 6.38901 22.1711 6.42157 21.7504C6.45413 21.3298 6.38698 20.9074 6.22557 20.5176C6.06415 20.1277 5.81304 19.7815 5.49263 19.507C5.17223 19.2325 4.79157 19.0375 4.38161 18.9378C1.65022 18.2752 1.65022 14.3896 4.38161 13.727C4.79194 13.6276 5.173 13.4327 5.49377 13.1582C5.81453 12.8836 6.06595 12.5372 6.22755 12.1472C6.38915 11.7571 6.45636 11.3344 6.42373 10.9135C6.39109 10.4926 6.25952 10.0853 6.03973 9.7248C4.5776 7.32473 7.32454 4.57623 9.72618 6.03836C11.2754 6.98408 13.2975 6.14724 13.7268 4.38179Z" stroke="#141718" stroke-width="3.06231" stroke-linecap="round" stroke-linejoin="round"/>
<path d="M20.9987 16.3324C20.9987 17.57 20.507 18.7569 19.6319 19.632C18.7568 20.5071 17.5699 20.9988 16.3323 20.9988C15.0947 20.9988 13.9078 20.5071 13.0326 19.632C12.1575 18.7569 11.6659 17.57 11.6659 16.3324C11.6659 15.0948 12.1575 13.9079 13.0326 13.0328C13.9078 12.1577 15.0947 11.666 16.3323 11.666C17.5699 11.666 18.7568 12.1577 19.6319 13.0328C20.507 13.9079 20.9987 15.0948 20.9987 16.3324V16.3324Z" stroke="#141718" stroke-width="4.08309" stroke-linecap="round" stroke-linejoin="round"/>
</svg>
