<svg width="31" height="32" viewBox="0 0 31 32" fill="none" xmlns="http://www.w3.org/2000/svg">
<path fill-rule="evenodd" clip-rule="evenodd" d="M15.5403 8.15767C9.7432 8.15767 5.02713 12.8737 5.02713 18.6708C5.02713 24.4679 9.7432 29.1839 15.5403 29.1839C21.3373 29.1839 26.0534 24.4679 26.0534 18.6708C26.0534 12.8737 21.3373 8.15767 15.5403 8.15767ZM15.5403 31.0392C8.72034 31.0392 3.17187 25.4907 3.17187 18.6708C3.17187 11.8508 8.72034 6.30237 15.5403 6.30237C22.3602 6.30237 27.9087 11.8508 27.9087 18.6708C27.9087 25.4907 22.3602 31.0392 15.5403 31.0392Z" fill="#9E9E9E"/>
<path fill-rule="evenodd" clip-rule="evenodd" d="M19.7839 23.2378C19.6218 23.2378 19.4586 23.1958 19.3089 23.108L14.646 20.3263C14.3665 20.1581 14.1934 19.8551 14.1934 19.5286L14.1934 13.5324C14.1934 13.0203 14.6089 12.6047 15.121 12.6047C15.6343 12.6047 16.0486 13.0203 16.0486 13.5324L16.0486 19.0017L20.2601 21.5125C20.6991 21.7759 20.8438 22.3448 20.5816 22.7852C20.4072 23.0758 20.0993 23.2378 19.7839 23.2378Z" fill="#9E9E9E"/>
</svg>
