<svg width="25" height="25" viewBox="0 0 25 25" fill="none" xmlns="http://www.w3.org/2000/svg">
<path fill-rule="evenodd" clip-rule="evenodd" d="M1.66815 9.1945C0.908731 9.87798 0.475098 10.8516 0.475098 11.8734L0.475098 21.0803C0.475098 23.0708 2.08867 24.6843 4.0791 24.6843L20.8978 24.6843C22.8883 24.6843 24.5018 23.0708 24.5018 21.0803L24.5018 11.8734C24.5018 10.8516 24.0681 9.87798 23.3087 9.1945L14.8994 1.62609C13.5288 0.392538 11.4481 0.392538 10.0775 1.6261L1.66815 9.1945ZM11.2871 13.8723C9.96015 13.8723 8.88444 14.9479 8.88444 16.2749L8.88444 21.0803C8.88444 21.7438 9.4223 22.2816 10.0858 22.2816L14.8911 22.2816C15.5546 22.2816 16.0924 21.7438 16.0924 21.0803L16.0924 16.2749C16.0924 14.9479 15.0168 13.8723 13.6898 13.8723L11.2871 13.8723Z" fill="#A0A0A5"/>
</svg>
