<svg width="30" height="30" viewBox="0 0 30 30" fill="none" xmlns="http://www.w3.org/2000/svg">
<path d="M11.7041 8.07459V25.2994M18.9541 4.01459V21.2394M4.4541 10.5541C4.4541 8.70897 4.4541 7.78701 4.92898 7.2493C5.09693 7.05717 5.30114 6.90492 5.52952 6.7998C7.24052 6.01076 9.48318 8.08788 11.2933 8.02384C11.5325 8.01498 11.7689 7.98195 12.0026 7.92476C14.6416 7.2783 16.2946 4.20309 19.0085 3.82851C20.5636 3.61101 22.271 4.55109 23.7258 5.05376C24.9221 5.46701 25.5202 5.67363 25.8621 6.16542C26.2041 6.65722 26.2041 7.31213 26.2041 8.61713V18.7937C26.2041 20.6376 26.2041 21.5608 25.7292 22.0985C25.5625 22.2881 25.3579 22.4408 25.1287 22.5468C23.4177 23.3358 21.175 21.2599 19.3649 21.324C19.1259 21.3331 18.8883 21.3659 18.6556 21.4218C16.0166 22.0683 14.3636 25.1435 11.6497 25.5193C10.1019 25.7344 5.79293 24.613 4.79606 23.1812C4.4541 22.6894 4.4541 22.0369 4.4541 20.7295V10.5541Z" stroke="#A0A0A5" stroke-width="1.5" stroke-linecap="round" stroke-linejoin="round"/>
</svg>
