<svg width="25" height="28" viewBox="0 0 25 28" fill="none" xmlns="http://www.w3.org/2000/svg">
<path fill-rule="evenodd" clip-rule="evenodd" d="M12.0711 2.07765C9.72615 2.07765 7.82521 3.97859 7.82521 6.32353C7.82521 8.66846 9.72615 10.5694 12.0711 10.5694C14.416 10.5694 16.317 8.66846 16.317 6.32353C16.317 3.97859 14.416 2.07765 12.0711 2.07765ZM6.02393 6.32353C6.02393 2.98377 8.73133 0.276367 12.0711 0.276367C15.4108 0.276367 18.1182 2.98377 18.1182 6.32353C18.1182 9.66328 15.4108 12.3707 12.0711 12.3707C8.73133 12.3707 6.02393 9.66328 6.02393 6.32353Z" fill="#9E9E9E"/>
<path fill-rule="evenodd" clip-rule="evenodd" d="M2.83654 20.1883C4.70656 18.1904 7.74786 16.6865 12.4147 16.6865C17.0816 16.6865 20.1229 18.1904 21.9929 20.1883C23.8394 22.161 24.4661 24.5337 24.4661 26.1647C24.4661 26.6621 24.0629 27.0653 23.5655 27.0653L1.26392 27.0653C0.766512 27.0653 0.363281 26.6621 0.363281 26.1647C0.363281 24.5337 0.990074 22.161 2.83654 20.1883ZM2.24116 25.2641L22.5883 25.2641C22.4008 24.108 21.8466 22.6679 20.6778 21.4192C19.2026 19.8431 16.6685 18.4878 12.4147 18.4878C8.16093 18.4878 5.62684 19.8431 4.15162 21.4192C2.98285 22.6679 2.42858 24.108 2.24116 25.2641Z" fill="#9E9E9E"/>
</svg>
